# AST/ASF file generated using VICON BodyLanguage
# -----------------------------------------------
:version 1.10
:name VICON
:units
  mass 1.0
  length 0.45
  angle deg
:documentation
   .ast/.asf automatically generated from VICON data using
   VICON BodyBuilder and BodyLanguage model FoxedUp or BRILLIANT.MOD
:root
   order TX TY TZ RX RY RZ
   axis XYZ
   position 0 0 0  
   orientation 0 0 0 
:bonedata
  begin
     id 1 
     name lhipjoint
     direction 0.627457 -0.725269 0.283342 
     length 2.53237 
     axis 0 0 0  XYZ
  end
  begin
     id 2 
     name lfemur
     direction 0.34202 -0.939693 0  
     length 7.32496  
     axis 0 0 20  XYZ
    dof rx ry rz
    limits (-160.0 20.0)
           (-70.0 70.0)
           (-60.0 70.0)
  end
  begin
     id 3 
     name ltibia
     direction 0.34202 -0.939693 0   
     length 7.69674   
     axis 0 0 20   XYZ
    dof rx
    limits (-10.0 170.0)
  end
  begin
     id 4 
     name lfoot
     direction 0.127289 -0.349722 0.928166   
     length 1.8612   
     axis -90 7.62852e-016 20   XYZ
    dof rx rz
    limits (-45.0 90.0)
           (-70.0 20.0)
  end
  begin
     id 5 
     name ltoes
     direction 1.53561e-011 -4.21864e-011 1   
     length 0.925608   
     axis -90 7.62852e-016 20   XYZ
    dof rx
    limits (-90.0 20.0)
  end
  begin
     id 6 
     name rhipjoint
     direction -0.609094 -0.738725 0.288599   
     length 2.48624  
     axis 0 0 0  XYZ 
  end
  begin
     id 7 
     name rfemur
     direction -0.34202 -0.939693 0   
     length 7.44259   
     axis 0 0 -20   XYZ
    dof rx ry rz
    limits (-160.0 20.0)
           (-70.0 70.0)
           (-70.0 60.0)
  end
  begin
     id 8 
     name rtibia
     direction -0.34202 -0.939693 0   
     length 7.7781   
     axis 0 0 -20   XYZ
    dof rx
    limits (-10.0 170.0)
 end
 begin
     id 9 
     name rfoot
     direction -0.107015 -0.294021 0.949789   
     length 2.14741  
     axis -90 -7.62852e-016 -20   XYZ
    dof rx rz
    limits (-45.0 90.0)
           (-20.0 70.0)
  end
  begin
     id 10 
     name rtoes
     direction -1.53497e-011 -4.21924e-011 1   
     length 1.0706   
     axis -90 -7.62852e-016 -20   XYZ
    dof rx
    limits (-90.0 20.0)
  end
  begin
     id 11 
     name lowerback
     direction -0.0142066 0.998112 -0.0597545   
     length 1.86627   
     axis 0 0 0   XYZ
    dof rx ry rz
    limits (-20.0 45.0)
           (-30.0 30.0)
           (-30.0 30.0)
  end
  begin
     id 12 
     name upperback
     direction 0.00547294 0.999744 0.0219437   
     length 1.86272   
     axis 0 0 0   XYZ
    dof rx ry rz
    limits (-20.0 45.0)
           (-30.0 30.0)
           (-30.0 30.0)
  end
  begin
     id 13 
     name thorax
     direction 0.0116162 0.998704 0.0495538   
     length 1.8703   
     axis 0 0 0   XYZ
    dof rx ry rz
    limits (-20.0 45.0)
           (-30.0 30.0)
           (-30.0 30.0)
  end
  begin
     id 14 
     name lowerneck
     direction -0.0106574 0.998739 0.0490586   
     length 1.8074   
     axis 0 0 0   XYZ
    dof rx ry rz
    limits (-20.0 45.0)
           (-30.0 30.0)
           (-30.0 30.0)
  end
  begin
     id 15 
     name upperneck
     direction 0.030527 0.976587 -0.212944   
     length 1.80681   
     axis 0 0 0   XYZ
    dof rx ry rz
    limits (-20.0 45.0)
           (-30.0 30.0)
           (-30.0 30.0)
  end
  begin
     id 16
     name head
     direction 0.00869225 0.997035 -0.0764531  
     length 1.8313  
     axis 0 0 0   XYZ
    dof rx ry rz
    limits (-20.0 45.0)
           (-30.0 30.0)
           (-30.0 30.0)
  end
  begin
     id 17 
     name lclavicle
     direction 0.915958 0.399447 0.0382386  
     length 3.78965  
     axis 0 0 0   XYZ
    dof ry rz
    limits (-20.0 10.0)
           (0.0 20.0)
  end
  begin
     id 18 
     name lhumerus
     direction 1 -4.48967e-011 3.19303e-027   
     length 4.78095   
     axis -180 -30 -90   XYZ
    dof rx ry rz
    limits (-60.0 90.0)
           (-90.0 90.0)
           (-90.0 90.0)
  end
  begin
     id 19
     name lradius
     direction 1 -4.48967e-011 -3.77974e-027   
     length 3.58615   
     axis -180 -30 -90   XYZ
    dof rx
    limits (-10.0 170.0)
  end
  begin
     id 20
     name lwrist
     direction 1 -4.48927e-011 1.2807e-027   
     length 1.79307   
     axis 1.91374e-015 90 90   XYZ
    dof ry
    limits (-180.0 0.0)
 end
  begin
     id 21 
     name lhand
     direction 1 -4.49036e-011 2.5614e-027   
     length 0.659812   
     axis -1.63439e-015 90 90   XYZ
    dof rx rz
    limits (-90.0 90.0)
           (-45.0 45.0)
  end
  begin
     id 22 
     name lfingers
     direction 1 -4.49052e-011 5.1228e-027   
     length 0.531957   
     axis -3.26879e-015 90 90   XYZ
    dof rx
    limits (0.0 90.0)
  end
  begin
     id 23
     name lthumb
     direction 0.707107 -6.35012e-011 0.707107   
     length 0.763787   
     axis -90 45 2.85299e-015   XYZ
    dof rx rz
    limits (-45.0 45.0)
           (-45.0 45.0)
  end
  begin
     id 24 
     name rclavicle
     direction -0.895351 0.435135 0.0948887   
     length 3.70497  
     axis 0 0 0   XYZ 
    dof ry rz
    limits (-10.0 20.0)
           (-20.0 0.0)
  end
  begin
     id 25 
     name rhumerus
     direction -1 -4.48971e-011 2.38946e-027  
     length 4.48913   
     axis -180 30 90   XYZ
    dof rx ry rz
    limits (-90.0 60.0)
           (-90.0 90.0)
           (-90.0 90.0)
  end
  begin
     id 26 
     name rradius
     direction -1 -4.4895e-011 4.38668e-027   
     length 3.7051   
     axis -180 30 90   XYZ
    dof rx
    limits (-10.0 170.0)
  end
  begin
     id 27 
     name rwrist
     direction -1 -4.49007e-011 1.2807e-027   
     length 1.85255   
     axis 1.91374e-015 -90 -90   XYZ
    dof ry
    limits (-180.0 0.0)
  end
  begin
     id 28
     name rhand
     direction -1 -4.48851e-011 2.5614e-027   
     length 0.449136   
     axis -1.63439e-015 -90 -90   XYZ
    dof rx rz
    limits (-90.0 90.0)
           (-45.0 45.0)
  end
  begin
     id 29
     name rfingers
     direction -1 -4.49128e-011 5.1228e-027   
     length 0.362105   
     axis -3.26879e-015 -90 -90   XYZ
    dof rx
    limits (0.0 90.0)
  end
  begin
     id 30
     name rthumb
     direction -0.707107 -6.34851e-011 0.707107   
     length 0.519912   
     axis -90 -45 -2.85299e-015   XYZ
    dof rx rz
    limits (-45.0 45.0)
           (-45.0 45.0)
  end
:hierarchy
  begin
    root lhipjoint rhipjoint lowerback
    lhipjoint lfemur
    lfemur ltibia
    ltibia lfoot
    lfoot ltoes
    rhipjoint rfemur
    rfemur rtibia
    rtibia rfoot
    rfoot rtoes
    lowerback upperback
    upperback thorax
    thorax lowerneck lclavicle rclavicle
    lowerneck upperneck
    upperneck head
    lclavicle lhumerus
    lhumerus lradius
    lradius lwrist
    lwrist lhand lthumb
    lhand lfingers
    rclavicle rhumerus
    rhumerus rradius
    rradius rwrist
    rwrist rhand rthumb
    rhand rfingers
  end

#!OML:ASF I:\Actors\actors\Patient Classification 2\Patient 1\Session 1\actor1.ASF
:FULLY-SPECIFIED
:DEGREES
1
root -0.727476 18.7193 5.81591 3.26841 -1.91991 -0.903486
lowerback 0.228778 -0.207039 -2.17149
upperback -1.93107 -0.293546 0.712459
thorax -2.09432 -0.102132 1.9543
lowerneck -14.5441 -1.06264 -0.757551
upperneck 23.877 -2.23948 3.53959
head 10.0497 -0.696346 1.08318
rclavicle 3.45388e-015 1.2424e-015
rhumerus -44.2352 -2.58492 -87.314
rradius 38.3001
rwrist 21.1707
rhand -7.65283 -29.9139
rfingers 7.12502
rthumb 18.2429 -59.0784
lclavicle 3.45388e-015 1.2424e-015
lhumerus -41.01 4.71926 89.5878
lradius 36.4795
lwrist -6.58886
lhand -4.1723 -25.5478
lfingers 7.12502
lthumb 21.5885 3.26889
rfemur 4.97505 2.43377 14.8839
rtibia 1.59028e-015
rfoot -17.2827 -10.1376
rtoes -1.66646
lfemur -5.57119 -7.96409 -13.2645
ltibia 20.0607
lfoot -23.0524 15.2926
ltoes -55.5033
2
root -0.729362 18.7203 5.82184 3.26502 -1.87496 -0.902832
lowerback 0.177958 -0.226702 -2.17544
upperback -1.91281 -0.318455 0.722622
thorax -2.04565 -0.115205 1.96711
lowerneck -14.6196 -1.06197 -0.810997
upperneck 23.923 -2.23079 3.55549
head 10.0812 -0.693974 1.09912
rclavicle -2.4421e-015 -2.78299e-015
rhumerus -44.1695 -2.55233 -87.3156
rradius 38.2848
rwrist 21.1663
rhand -7.67863 -29.8499
rfingers 7.12502
rthumb 18.218 -59.0168
lclavicle -2.4421e-015 -2.78299e-015
lhumerus -40.9076 4.74908 89.5928
lradius 36.3964
lwrist -6.69814
lhand -4.14425 -25.6106
lfingers 7.12502
lthumb 21.6154 3.20291
rfemur 5.0117 2.38922 14.8889
rtibia 4.77083e-015
rfoot -17.3135 -10.1111
rtoes -1.54126
lfemur -5.56059 -7.83975 -13.253
ltibia 20.0651
lfoot -22.9303 15.2044
ltoes -55.5791
3
root -0.731 18.7201 5.82691 3.27375 -1.83484 -0.887316
lowerback 0.139723 -0.239912 -2.181
upperback -1.9253 -0.335673 0.708297
thorax -2.03619 -0.123848 1.95567
lowerneck -14.6061 -1.06281 -0.809083
upperneck 23.9259 -2.2333 3.55832
head 10.0798 -0.694755 1.09952
rclavicle 3.49116e-015 -7.60351e-015
rhumerus -44.1674 -2.56318 -87.3357
rradius 38.2911
rwrist 21.203
rhand -7.66611 -29.7565
rfingers 7.12502
rthumb 18.2301 -58.9222
lclavicle 3.49116e-015 -7.60351e-015
lhumerus -40.8615 4.7457 89.5827
lradius 36.3181
lwrist -6.72644
lhand -4.13067 -25.6
lfingers 7.12502
lthumb 21.6285 3.21204
rfemur 5.03245 2.34751 14.8765
rtibia 3.18055e-015
rfoot -17.3232 -10.0969
rtoes -1.47187
lfemur -5.54993 -7.8752 -13.2656
ltibia 20.0349
lfoot -22.8755 15.2145
ltoes -55.5312
4
root -0.73202 18.7195 5.83104 3.29568 -1.80142 -0.85613
lowerback 0.109689 -0.244488 -2.18356
upperback -1.96547 -0.341999 0.676634
thorax -2.06044 -0.126572 1.92467
lowerneck -14.5048 -1.06682 -0.773483
upperneck 23.8878 -2.23934 3.53106
head 10.0461 -0.699035 1.08308
rclavicle -7.7495e-016 1.0138e-014
rhumerus -44.2075 -2.58578 -87.3709
rradius 38.3215
rwrist 21.214
rhand -7.71041 -29.7809
rfingers 7.12502
rthumb 18.1875 -58.9506
lclavicle -7.7495e-016 1.0138e-014
lhumerus -40.9053 4.65238 89.6111
lradius 36.4699
lwrist -6.81932
lhand -4.00251 -25.0173
lfingers 7.12502
lthumb 21.7516 3.78049
rfemur 5.03268 2.31036 14.8462
rtibia -1.59028e-015
rfoot -17.3127 -10.1043
rtoes -1.66881
lfemur -5.55816 -8.04505 -13.3057
ltibia 20.0292
lfoot -22.9442 15.3223
ltoes -55.4726
5
root -0.732668 18.7201 5.8347 3.32703 -1.77736 -0.831602
lowerback 0.0593097 -0.24852 -2.18575
upperback -2.00768 -0.347003 0.654799
thorax -2.07539 -0.128655 1.90344
lowerneck -14.3941 -1.07241 -0.743498
upperneck 23.8587 -2.24326 3.49166
head 10.0136 -0.704271 1.06371
rclavicle -1.50253e-015 1.0635e-014
rhumerus -44.26 -2.56871 -87.4143
rradius 38.3774
rwrist 21.0954
rhand -7.8345 -29.9118
rfingers 7.12502
rthumb 18.0681 -59.0926
lclavicle -1.50253e-015 1.0635e-014
lhumerus -40.9685 4.55286 89.6747
lradius 36.7709
lwrist -7.0848
lhand -3.75316 -23.9594
lfingers 7.12502
lthumb 21.991 4.81044
rfemur 5.01824 2.28206 14.8189
rtibia 3.18055e-015
rfoot -17.3335 -10.0918
rtoes -1.69014
lfemur -5.57497 -8.11808 -13.3339
ltibia 20.0252
lfoot -22.9855 15.3785
ltoes -55.5147
